<svg xmlns="http://www.w3.org/2000/svg" xmlns:xlink="http://www.w3.org/1999/xlink" width="1920" height="949" viewBox="0 0 1920 949">
  <defs>
    <linearGradient id="linear-gradient" x1="0.146" y1="0.843" x2="0.988" y2="0.329" gradientUnits="objectBoundingBox">
      <stop offset="0" stop-color="#ecc8e1"/>
      <stop offset="1" stop-color="#b87ebe"/>
    </linearGradient>
    <linearGradient id="linear-gradient-2" x1="0.045" y1="1.207" x2="0.918" y2="-0.152" gradientUnits="objectBoundingBox">
      <stop offset="0" stop-color="#f9a1cc"/>
      <stop offset="1" stop-color="#fd5994"/>
    </linearGradient>
    <clipPath id="clip-path">
      <rect id="Rectangle_107" data-name="Rectangle 107" width="1920" height="949" transform="translate(11989 -3265)" fill="#fff" stroke="#707070" stroke-width="1"/>
    </clipPath>
    <clipPath id="clip-path-2">
      <rect id="Rectangle_39" data-name="Rectangle 39" width="572.798" height="384.875" fill="url(#linear-gradient-2)"/>
    </clipPath>
  </defs>
  <g id="Groupe_de_masques_8" data-name="Groupe de masques 8" transform="translate(-11989 3265)" clip-path="url(#clip-path)">
    <path id="Union_14" data-name="Union 14" d="M5.959,241.315,543.394,117.239A317.1,317.1,0,0,1,575.258,77.5c38.1-40,82.258-59.269,126.807-58.206l1.03.028c33.8,1.047,67.8,13.792,99.548,38.067l8.75-2.02,1.842,10.622c28.937,24.9,55.7,59.7,78.314,104.256,39.379,77.58,64.571,176.714,97.142,265.072,50.134,136,144.12,225.562,179.95,377.244,14.773,62.542,15.706,132.532,16.693,198.5,1.767,118.075,10.079,231.358,22.877,348.2,19.916,181.83,195.314,366.434,154.092,526.883-32.945,128.231-260.721,226.05-336.533,227.688q-1.118.024-2.237.024c-33.3,0-66.86-16.013-97.577-44.776l-472.82,109.159Z" transform="translate(14174.186 -3326.477) rotate(103)" fill="url(#linear-gradient)"/>
    <g id="Groupe_135" data-name="Groupe 135" transform="translate(13409 -3409)">
      <g id="Groupe_50" data-name="Groupe 50" clip-path="url(#clip-path-2)">
        <path id="Tracé_62" data-name="Tracé 62" d="M377.935,258.7C309.182,282.439,278.1,379.942,205.522,384.724c-36.074,2.377-71.337-23.535-82.225-58.007s1.874-74.474,29.073-98.29c41.246-36.114,104.918-34.076,149.288-66.275,40.859-29.651,57.772-82.5,93.3-118.37,61.474-62.074,166.5-57.383,222.438,9.244,54.938,65.437-13.887,171.647-84.468,196.9-50.218,17.964-104.67-8.6-154.988,8.774" transform="translate(-64.501 0)" fill="url(#linear-gradient-2)"/>
        <path id="Tracé_63" data-name="Tracé 63" d="M18.029,492.935c5.7,1.46,10.913-3.337,14.846-7.709l17.685-19.66a18.061,18.061,0,0,0,3.723-5.3c2.119-5.459-1.445-11.475-5.616-15.586-12.37-12.19-38.981-17.271-47.556,2.6-2.8,6.5.307,13.136,2.61,19.282,2.85,7.609,5.1,24.018,14.308,26.378" transform="translate(27.458 -241.497)" fill="url(#linear-gradient-2)"/>
        <path id="Tracé_64" data-name="Tracé 64" d="M502,731.173a13.765,13.765,0,0,0-.874,6.175c.724,8.124,9.078,14.167,17.233,14.083s15.629-5.131,20.585-11.609a40,40,0,0,0,7.756-18.336c.842-5.67-.124-23.629-9.672-21.695-3.336.676-6.132,4.422-8.3,6.756-3.429,3.7-6.75,7.358-10.9,10.273-5.777,4.056-13.1,7.323-15.83,14.353" transform="translate(-270.648 -377.908)" fill="url(#linear-gradient-2)"/>
        <path id="Tracé_65" data-name="Tracé 65" d="M220.986,210.009c-31.753,4.85-63.34,10.246-94.983,15.9-10.259,1.834-21.839,4.687-26.871-6.547-3.975-8.875,1.872-23.047,7.784-29.749,9.248-10.484,23.325-15.271,37.029-18.039s27.873-4,40.813-9.293c16.861-6.9,30.2-20.056,44.218-31.691,15.615-12.962,35.07-25.64,56.351-22.259,15.416,2.45,30.846,12.156,26.792,29.278-3.725,15.731-20.247,29.945-30.613,41.426-17.66,19.557-34.538,27-60.52,30.969" transform="translate(-36.488 -41.217)" fill="url(#linear-gradient-2)"/>
        <path id="Tracé_66" data-name="Tracé 66" d="M675.9,590.444c-13.9,5.74-25.229,16.565-33.9,28.854-4.356,6.174-8.187,12.938-9.485,20.381s.284,15.7,5.558,21.11c8.372,8.59,22.38,7.4,34.008,4.448,19.031-4.826,61.72-16.319,65.019-40.686,4.406-32.544-37.59-43.856-61.2-34.106" transform="translate(-341.415 -317.096)" fill="url(#linear-gradient-2)"/>
      </g>
    </g>
  </g>
</svg>
