<svg xmlns="http://www.w3.org/2000/svg" xmlns:xlink="http://www.w3.org/1999/xlink" width="1920" height="661" viewBox="0 0 1920 661">
  <defs>
    <clipPath id="clip-path">
      <rect id="Rectangle_112" data-name="Rectangle 112" width="1920" height="661" transform="translate(16284 -4540)" fill="#fff" stroke="#707070" stroke-width="1"/>
    </clipPath>
  </defs>
  <g id="a-propos-down" transform="translate(-16284 4540)" clip-path="url(#clip-path)">
    <path id="Union_15" data-name="Union 15" d="M-7777.769-3210.287V-3710.5l-3.157-5.5a282.05,282.05,0,0,1-13.876-28.9c-91.246-220.361,14.252-478.773,213.234-598.155l12.077-7.006a469.473,469.473,0,0,1,78.645-35.126c199.06-67.679,414.95-3.331,612.97,62.877s411.211,134.965,612.751,75.324c100.938-29.869,195.806-91.408,300.728-89.754,140.893,2.223,262.651,140.428,247.08,280.458-4.058,36.49-15.976,71.311-33.453,103.584v742.406ZM-6514.727-4265.41q-23.019-6.781-46.037-13.559c-3.784-1.114-7.659-2.272-10.723-4.645-8.255-6.391-7.782-18.988-4.645-29.23,9.306-30.368,47.988-63.222,79.433-40.766,10.286,7.345,11.1,20.468,12.786,32.078,2.09,14.373,12.919,41.7.069,53.991a16.768,16.768,0,0,1-3.222,2.417,21.961,21.961,0,0,1-11.112,2.631C-6503.7-4262.494-6509.531-4263.881-6514.727-4265.41Zm100.56-25.018c-21.375-19.41-28.3-55.331-10.353-78.336a49.826,49.826,0,0,1,17.343-14.062c24.236-11.835,51.226-2.757,76.118.533,17.889,2.361,35.442.772,53.367-.653,11.313-.9,27.714-3.976,38.02,2.284,29.5,17.917-11.828,67.249-27.851,80.064a143,143,0,0,1-17.842,12.173,144.169,144.169,0,0,1-47.042,17.151,122.85,122.85,0,0,1-21.165,1.86C-6375.828-4269.414-6397.967-4275.718-6414.167-4290.428Z" transform="translate(23992.768 -67.041)" fill="#f9a1cc" stroke="rgba(0,0,0,0)" stroke-miterlimit="10" stroke-width="1"/>
  </g>
</svg>
