<svg xmlns="http://www.w3.org/2000/svg" xmlns:xlink="http://www.w3.org/1999/xlink" width="1920" height="1230" viewBox="0 0 1920 1230">
  <defs>
    <style>
      .cls-1 {
        fill: #fff;
        stroke: #707070;
      }

      .cls-2 {
        fill: url(#linear-gradient);
      }

      .cls-3 {
        fill: url(#linear-gradient-2);
      }

      .cls-4 {
        fill: url(#linear-gradient-3);
      }

      .cls-5 {
        fill: url(#linear-gradient-4);
      }

      .cls-6 {
        clip-path: url(#clip-path);
      }

      .cls-7 {
        clip-path: url(#clip-path-2);
      }

      .cls-8 {
        clip-path: url(#clip-path-3);
      }
    </style>
    <linearGradient id="linear-gradient" x1="0.146" y1="0.843" x2="0.988" y2="0.329" gradientUnits="objectBoundingBox">
      <stop offset="0" stop-color="#ecc8e1"/>
      <stop offset="1" stop-color="#b87ebe"/>
    </linearGradient>
    <linearGradient id="linear-gradient-2" x1="0.251" y1="-0.178" x2="0.705" y2="1.187" xlink:href="#linear-gradient"/>
    <linearGradient id="linear-gradient-3" x1="0.5" x2="0.5" y2="1" gradientUnits="objectBoundingBox">
      <stop offset="0" stop-color="#f9a1cc"/>
      <stop offset="1" stop-color="#fd5994"/>
    </linearGradient>
    <linearGradient id="linear-gradient-4" x1="0.897" y1="0.066" x2="0.104" y2="0.956" xlink:href="#linear-gradient-3"/>
    <clipPath id="clip-path">
      <rect id="Rectangle_32" data-name="Rectangle 32" class="cls-1" width="1920" height="1230" transform="translate(0 144)"/>
    </clipPath>
    <clipPath id="clip-path-2">
      <rect id="Rectangle_16" data-name="Rectangle 16" class="cls-4" width="523.081" height="473.988"/>
    </clipPath>
    <clipPath id="clip-path-3">
      <rect id="Rectangle_18" data-name="Rectangle 18" class="cls-5" width="538.486" height="351.918"/>
    </clipPath>
  </defs>
  <g id="Groupe_de_masques_1" data-name="Groupe de masques 1" class="cls-6" transform="translate(0 -144)">
    <g id="Groupe_27" data-name="Groupe 27">
      <path id="Union_1" data-name="Union 1" class="cls-2" d="M5.959,241.315,543.394,117.239A317.1,317.1,0,0,1,575.258,77.5c38.1-40,82.258-59.269,126.807-58.206l1.03.028c33.8,1.047,67.8,13.792,99.548,38.067l8.75-2.02,1.842,10.622c28.937,24.9,55.7,59.7,78.314,104.256,39.379,77.58,64.571,176.714,97.142,265.072,50.134,136,144.12,225.562,179.95,377.244,14.773,62.542,15.706,132.532,16.693,198.5,1.767,118.075,10.079,231.358,22.877,348.2,19.916,181.83,195.314,366.434,154.092,526.883-32.945,128.231-260.721,226.05-336.533,227.688q-1.118.024-2.237.024c-33.3,0-66.86-16.013-97.577-44.776l-472.82,109.159Z" transform="translate(2189.69 92.581) rotate(103)"/>
      <path id="Union_2" data-name="Union 2" class="cls-3" d="M-4543.006-8977.663c-94.36-2.74-183.616-43.356-272.254-83.783-101.6-46.34-202.379-92.43-309.108-80.953-90.665,9.747-167.981,60.52-255.6,82.22-71.035,17.591-148.09,13.627-219.8-8.111l-2-.612c-78.722-24.259-150.852-69.959-201.4-132.106-96.944-119.2-107.884-290.9-26.235-411.771,27.384-40.538,64.573-74.448,107.725-100.324v-483.333h1898.916v539.587c127.12,106.245,236.082,249.879,199.246,371.578l-.269.877a169.279,169.279,0,0,1-12.605,30.1c-64.962,121.227-376.363,80.347-498.779,129.256-131.683,52.605-244.651,147.524-397.15,147.535C-4535.86-8977.507-4539.41-8977.559-4543.006-8977.663Z" transform="translate(5742.75 10196.438)"/>
    </g>
    <g id="Groupe_19" data-name="Groupe 19" transform="matrix(-0.719, -0.695, 0.695, -0.719, 1241.086, 2923.465)">
      <g id="Groupe_20" data-name="Groupe 20" transform="translate(499 1500)">
        <g id="Groupe_19-2" data-name="Groupe 19" class="cls-7">
          <path id="Tracé_35" data-name="Tracé 35" class="cls-4" d="M167.241,223.063c-5.308,26.832-10.417,55.7.732,80.681,8.181,18.33,24.3,32.334,31.82,50.946,11.43,28.308,1.349,63.112,17.341,89.117,10.159,16.52,29.248,25.9,48.414,28.867s38.705.345,57.922-2.272c24.03-3.273,48.757-6.778,69.742-18.935s37.552-35.251,34.566-59.319c-2.8-22.53-21.247-39.965-28.052-61.624-8.839-28.137,3.045-58.044,12.9-85.841C431.1,192.6,442.842,135,425.737,82.458c-20.582-63.226-89.995-111.593-145.564-62C266.749,32.437,254.29,45.09,239.86,55.95,225.874,66.475,201.6,75.281,193.313,89.9c-9.235,16.284-9.243,48.1-12.922,66.7l-13.149,66.469" transform="translate(-69.824 0)"/>
          <path id="Tracé_36" data-name="Tracé 36" class="cls-4" d="M695.336,192.706a53.8,53.8,0,0,1,19.554-14.544c29.226-12.7,65.576,4.661,80.532,32.8s11.612,63.213-1.349,92.325a156.272,156.272,0,0,1-48.41,60.886c-17.88,13.486-81.3,43.748-92.516,7.372-3.917-12.709,3.71-29.3,7.67-41.092,6.276-18.676,12.628-36.913,14.867-56.605,3.116-27.4.632-58.643,19.652-81.143" transform="translate(-282.209 -75.277)"/>
          <path id="Tracé_37" data-name="Tracé 37" class="cls-4" d="M.225,584.779a9,9,0,0,0,5.327,5.514,26.643,26.643,0,0,0,7.733,1.619c7.73.83,15.606,2.173,23.376,2.459,1.906.07,4.034-.472,5.039-2.095,2.84-4.585-4.228-20.213-5.52-24.9-2.416-8.754-9.64-17.63-18.359-9.958-5.606,4.934-19.77,19.5-17.6,27.356" transform="matrix(0.891, -0.454, 0.454, 0.891, 118.421, -429.595)"/>
        </g>
      </g>
    </g>
    <g id="Groupe_24" data-name="Groupe 24" transform="translate(-176.314 967.271) rotate(-16)">
      <g id="Groupe_23" data-name="Groupe 23" class="cls-8">
        <path id="Tracé_39" data-name="Tracé 39" class="cls-5" d="M171.978,47.891c15.115-21.836,44.867-26.553,71.274-29.375l143.2-15.3c23.608-2.523,47.542-5.039,71-1.357s46.776,14.356,60.737,33.56c22.023,30.295,12.306,78.6-19.719,98.017-23.848,14.462-53.718,12.96-80.807,19.6-54.087,13.252-93.927,57.762-130.624,99.647s-77.739,85.737-132.316,96.8C84.65,363.675,9.9,314.427.633,242.186c-8.174-63.728,64.782-74.093,108.578-95.621,18.4-9.044,34.174-20.607,43.211-39.593C161.4,88.1,159.8,65.48,171.978,47.891" transform="translate(0 0)"/>
        <path id="Tracé_40" data-name="Tracé 40" class="cls-5" d="M622.136,526.075c-8.052-2.064-15.427,4.717-20.987,10.9l-25,27.793c-2.054,2.283-4.151,4.635-5.263,7.5-3,7.717,2.042,16.222,7.939,22.032,17.486,17.232,55.1,24.414,67.226-3.674,3.964-9.187-.433-18.569-3.689-27.258-4.029-10.755-7.212-33.952-20.226-37.288" transform="translate(-296.41 -273.374)"/>
        <path id="Tracé_41" data-name="Tracé 41" class="cls-5" d="M781.608,469.394a45.523,45.523,0,0,1-20.307-3.588c-24.792-10.61-35.215-43.067-26.582-68.614s32.161-43.858,57.607-52.788a132.241,132.241,0,0,1,65.588-5.565c18.684,3.173,74.143,24.633,58.266,52.66-5.547,9.791-20.189,14.735-29.745,19.143-15.139,6.984-30.052,13.665-43.473,23.723-18.675,14-36.46,33.669-61.354,35.029" transform="translate(-380.516 -175.247)"/>
      </g>
    </g>
  </g>
</svg>
