<svg xmlns="http://www.w3.org/2000/svg" xmlns:xlink="http://www.w3.org/1999/xlink" width="1920" height="1312" viewBox="0 0 1920 1312">
  <defs>
    <style>
      .cls-1 {
        fill: #fff;
      }

      .cls-2 {
        fill: #ecc8e1;
      }

      .cls-3 {
        fill: url(#linear-gradient);
      }

      .cls-4 {
        clip-path: url(#clip-path);
      }

      .cls-5 {
        clip-path: url(#clip-path-2);
      }

      .cls-6 {
        clip-path: url(#clip-path-3);
      }
    </style>
    <linearGradient id="linear-gradient" x1="0.045" y1="1.207" x2="0.918" y2="-0.152" gradientUnits="objectBoundingBox">
      <stop offset="0" stop-color="#f9a1cc"/>
      <stop offset="1" stop-color="#fd5994"/>
    </linearGradient>
    <clipPath id="clip-path">
      <rect id="Rectangle_54" data-name="Rectangle 54" class="cls-1" width="1920" height="1312" transform="translate(8632 7375)"/>
    </clipPath>
    <clipPath id="clip-path-2">
      <rect id="Rectangle_14" data-name="Rectangle 14" class="cls-2" width="1133.998" height="2462.735"/>
    </clipPath>
    <clipPath id="clip-path-3">
      <rect id="Rectangle_39" data-name="Rectangle 39" class="cls-3" width="572.798" height="384.875"/>
    </clipPath>
  </defs>
  <g id="Groupe_de_masques_2" data-name="Groupe de masques 2" class="cls-4" transform="translate(-8632 -7375)">
    <g id="Groupe_69" data-name="Groupe 69" transform="matrix(-0.035, 0.999, -0.999, -0.035, 10842.401, 7553.693)">
      <g id="Groupe_16" data-name="Groupe 16" class="cls-5" transform="translate(0 -0.004)">
        <path id="Tracé_31" data-name="Tracé 31" class="cls-2" d="M775.461,125.259c71.965-22.9,150.088-61.126,218.611-29.375,72.31,33.5,91.878,126.678,92.178,206.373.768,204.525-64.137,403.933-76.814,608.064-25.284,407.137,157.646,807.972,119.241,1214.081-7.85,83.022-29.022,172.163-93.93,224.52-31.884,25.717-71.312,39.893-110.077,53.127-147.663,50.412-313.994,92.857-455.4,26.894-141.849-66.171-218.119-226.63-236.772-382.039s8.771-312.174,15.922-468.535a1811.866,1811.866,0,0,0-64.3-567.328C148.078,881.527,97.666,756.28,63.631,626.223,27.089,486.58-91.951,33.482,136.681,1.761,242.993-12.99,323.458,68.484,414.773,105.867,528.34,152.355,657.809,162.7,775.461,125.259" transform="translate(0 0.004)"/>
      </g>
    </g>
    <g id="Groupe_68" data-name="Groupe 68" transform="translate(10102 7395.563)">
      <g id="Groupe_50" data-name="Groupe 50" class="cls-6">
        <path id="Tracé_62" data-name="Tracé 62" class="cls-3" d="M377.935,258.7C309.182,282.439,278.1,379.942,205.522,384.724c-36.074,2.377-71.337-23.535-82.225-58.007s1.874-74.474,29.073-98.29c41.246-36.114,104.918-34.076,149.288-66.275,40.859-29.651,57.772-82.5,93.3-118.37,61.474-62.074,166.5-57.383,222.438,9.244,54.938,65.437-13.887,171.647-84.468,196.9-50.218,17.964-104.67-8.6-154.988,8.774" transform="translate(-64.501 0)"/>
        <path id="Tracé_63" data-name="Tracé 63" class="cls-3" d="M18.029,492.935c5.7,1.46,10.913-3.337,14.846-7.709l17.685-19.66a18.061,18.061,0,0,0,3.723-5.3c2.119-5.459-1.445-11.475-5.616-15.586-12.37-12.19-38.981-17.271-47.556,2.6-2.8,6.5.307,13.136,2.61,19.282,2.85,7.609,5.1,24.018,14.308,26.378" transform="translate(27.458 -241.497)"/>
        <path id="Tracé_64" data-name="Tracé 64" class="cls-3" d="M502,731.173a13.765,13.765,0,0,0-.874,6.175c.724,8.124,9.078,14.167,17.233,14.083s15.629-5.131,20.585-11.609a40,40,0,0,0,7.756-18.336c.842-5.67-.124-23.629-9.672-21.695-3.336.676-6.132,4.422-8.3,6.756-3.429,3.7-6.75,7.358-10.9,10.273-5.777,4.056-13.1,7.323-15.83,14.353" transform="translate(-270.648 -377.908)"/>
        <path id="Tracé_65" data-name="Tracé 65" class="cls-3" d="M220.986,210.009c-31.753,4.85-63.34,10.246-94.983,15.9-10.259,1.834-21.839,4.687-26.871-6.547-3.975-8.875,1.872-23.047,7.784-29.749,9.248-10.484,23.325-15.271,37.029-18.039s27.873-4,40.813-9.293c16.861-6.9,30.2-20.056,44.218-31.691,15.615-12.962,35.07-25.64,56.351-22.259,15.416,2.45,30.846,12.156,26.792,29.278-3.725,15.731-20.247,29.945-30.613,41.426-17.66,19.557-34.538,27-60.52,30.969" transform="translate(-36.488 -41.217)"/>
        <path id="Tracé_66" data-name="Tracé 66" class="cls-3" d="M675.9,590.444c-13.9,5.74-25.229,16.565-33.9,28.854-4.356,6.174-8.187,12.938-9.485,20.381s.284,15.7,5.558,21.11c8.372,8.59,22.38,7.4,34.008,4.448,19.031-4.826,61.72-16.319,65.019-40.686,4.406-32.544-37.59-43.856-61.2-34.106" transform="translate(-341.415 -317.096)"/>
      </g>
    </g>
  </g>
</svg>
