<svg xmlns="http://www.w3.org/2000/svg" xmlns:xlink="http://www.w3.org/1999/xlink" width="275" height="275" viewBox="0 0 275 275">
  <defs>
    <linearGradient id="linear-gradient" x1="0.914" x2="0.155" y2="1" gradientUnits="objectBoundingBox">
      <stop offset="0" stop-color="#ecc8e1"/>
      <stop offset="1" stop-color="#b87ebe"/>
    </linearGradient>
    <clipPath id="clip-path">
      <rect id="Rectangle_60" data-name="Rectangle 60" width="275" height="275" transform="translate(354 1473)" fill="none" stroke="#707070" stroke-width="1"/>
    </clipPath>
    <clipPath id="clip-path-2">
      <rect id="Rectangle_37" data-name="Rectangle 37" width="217.076" height="186.38" fill="url(#linear-gradient)"/>
    </clipPath>
    <clipPath id="clip-path-3">
      <rect id="Rectangle_32" data-name="Rectangle 32" width="217.076" height="216.651" fill="#623815"/>
    </clipPath>
  </defs>
  <g id="Groupe_de_masques_2" data-name="Groupe de masques 2" transform="translate(-354 -1473)" clip-path="url(#clip-path)">
    <g id="Groupe_43" data-name="Groupe 43" transform="translate(101 -2.273)">
      <g id="Groupe_40" data-name="Groupe 40" transform="translate(264 1550.136)">
        <g id="Groupe_39" data-name="Groupe 39" clip-path="url(#clip-path-2)">
          <path id="Tracé_60" data-name="Tracé 60" d="M163.018,3.64c28.135,10.914,39.394,43.969,47.279,73.1,5.856,21.631,11.448,45.846.655,65.484-11.793,21.458-38.363,29.036-62.2,34.625-22.2,5.207-44.756,10.448-67.539,9.394C28.558,183.809-21.3,125.268,9.411,73.709c12.358-20.744,37.076-32.249,57.4-43.344C94.776,15.1,129.762-9.259,163.018,3.64" transform="translate(0 0)" fill="url(#linear-gradient)"/>
        </g>
      </g>
      <g id="Groupe_36" data-name="Groupe 36" transform="translate(377 1490)">
        <g id="Groupe_35" data-name="Groupe 35" transform="translate(-78 22)" clip-path="url(#clip-path-3)">
          <path id="Tracé_48" data-name="Tracé 48" d="M194.962,125.54l-7.272,7.272a1.346,1.346,0,0,1,.035.182l7.281-7.281a1.267,1.267,0,0,1-.043-.173m1.976,10.28-8.017,8.017a.607.607,0,0,1,.009.217l8.035-8.035c-.009-.069-.017-.13-.026-.2" transform="translate(-25.011 -16.729)" fill="#623815"/>
          <path id="Tracé_49" data-name="Tracé 49" d="M79.727,42.728v.191A19.57,19.57,0,0,0,77.56,41.48Z" transform="translate(-10.335 -5.527)" fill="#623815"/>
          <path id="Tracé_50" data-name="Tracé 50" d="M173.525,21.218q0,.676-.052,1.352a20.754,20.754,0,0,1-1.5,6.631,21.083,21.083,0,0,1-4.516,6.9l-53.14,53.14-6.128-6.128L137.13,54.172l24.191-24.2a12.432,12.432,0,0,0,2.618-4.013,12.715,12.715,0,0,0,0-9.491,12.422,12.422,0,0,0-6.882-6.882,12.715,12.715,0,0,0-9.491,0,12.462,12.462,0,0,0-4.143,2.739L110.582,45.166l-7.766,7.766L77.827,77.92a12.391,12.391,0,0,0-1.838,2.349l9.04-15.662a20.884,20.884,0,0,0,2.739-8.884L137.295,6.2a21.207,21.207,0,0,1,34.678,7.029,20.677,20.677,0,0,1,1.343,5.044,20.965,20.965,0,0,1,.208,2.947" transform="translate(-10.126 0)" fill="#623815"/>
          <path id="Tracé_51" data-name="Tracé 51" d="M225.476,77.574a21.54,21.54,0,0,1-1.569,8.078,21.309,21.309,0,0,1-4.7,7.1l-1.855,1.855a22.082,22.082,0,0,0-2.93-.2,21.54,21.54,0,0,0-8.078,1.569,21.309,21.309,0,0,0-7.1,4.7L188.8,111.126a1.267,1.267,0,0,1-.043-.173l24.329-24.33a12.621,12.621,0,0,0,2.791-4.221,12.94,12.94,0,0,0,0-9.664,12.732,12.732,0,0,0-7.012-7.012,12.94,12.94,0,0,0-9.664,0,12.647,12.647,0,0,0-4.221,2.8l-47.42,47.42-.338-.329-5.8-5.8-.329-.338L166.139,84.43l6.171-6.171,31.7-31.688A12.621,12.621,0,0,0,206.8,42.35a12.94,12.94,0,0,0,0-9.664,12.661,12.661,0,0,0-7.012-7.012,12.94,12.94,0,0,0-9.664,0,12.621,12.621,0,0,0-4.221,2.791l-9.768,9.777a21.083,21.083,0,0,0,4.516-6.9,20.754,20.754,0,0,0,1.5-6.631q.052-.676.052-1.352a20.965,20.965,0,0,0-.208-2.947,21.1,21.1,0,0,1,4.888-2.774A21.421,21.421,0,0,1,216.4,37.522a21.7,21.7,0,0,1-1.56,8.078,21.335,21.335,0,0,1-4.706,7.1l-3.58,3.58a21.053,21.053,0,0,1,5.547,1.413,21.421,21.421,0,0,1,13.374,19.883" transform="translate(-18.801 -2.141)" fill="#623815"/>
          <path id="Tracé_52" data-name="Tracé 52" d="M192.529,125.54l-7.272,7.272L169.43,148.639l.113.1,23.029-23.029a1.267,1.267,0,0,1-.043-.173" transform="translate(-22.578 -16.729)" fill="#623815"/>
          <path id="Tracé_53" data-name="Tracé 53" d="M195.447,137.4,176.5,156.347l.113.113,18.86-18.86c-.009-.069-.017-.13-.026-.2" transform="translate(-23.52 -18.309)" fill="#623815"/>
          <path id="Tracé_54" data-name="Tracé 54" d="M167.734,157.564a4.337,4.337,0,0,1-6.128,0l-25.37-25.37-.815-.815h-.009l-5.313-5.322-1.17-1.17L112.5,108.463l-.832-.832-5.66-5.651v-.009l-.477-.477L103.4,99.362a4.333,4.333,0,0,1,6.128-6.128l2.132,2.132h.009L135.9,119.592l.329.338,5.8,5.8.338.329,18.1,18.106.113.1,6.015,6.024.113.113,1.031,1.023a4.347,4.347,0,0,1,0,6.137" transform="translate(-13.609 -12.254)" fill="#623815"/>
          <path id="Tracé_55" data-name="Tracé 55" d="M106.413,144.819a21.6,21.6,0,0,0-28.672-1.673,21.318,21.318,0,0,0-3.354,3.32,21.512,21.512,0,0,0-16.745-7.974,21.6,21.6,0,0,0-21.617,21.617,19.616,19.616,0,0,0,1.2,6.371,47.344,47.344,0,0,0,6.041,11.3,76.078,76.078,0,0,0,14.405,15.463,44.689,44.689,0,0,0,8.173,5.3,24.989,24.989,0,0,0,4.2,1.621,16.285,16.285,0,0,0,4.342.633,18.061,18.061,0,0,0,6.544-1.378,41.677,41.677,0,0,0,10.93-6.8,76.577,76.577,0,0,0,14.206-15.645,50.288,50.288,0,0,0,4.715-8.5,22.092,22.092,0,0,0,1.968-8.364,21.616,21.616,0,0,0-6.336-15.289m-3.06,18.843a39.735,39.735,0,0,1-4.949,9.161,67.821,67.821,0,0,1-12.715,13.643,36.288,36.288,0,0,1-6.553,4.282,17.213,17.213,0,0,1-2.73,1.057,7.825,7.825,0,0,1-2.02.321,9.768,9.768,0,0,1-3.389-.78,33.721,33.721,0,0,1-8.581-5.408,68.421,68.421,0,0,1-12.542-13.825,41.645,41.645,0,0,1-3.9-6.995,13.778,13.778,0,0,1-1.283-5.01A12.941,12.941,0,0,1,65.65,149.942a13.078,13.078,0,0,1,4.533,7,4.328,4.328,0,0,0,8.4.009,13.033,13.033,0,0,1,4.542-7.012,12.937,12.937,0,0,1,17.162,1.005,12.94,12.94,0,0,1,3.8,9.161,11.731,11.731,0,0,1-.728,3.554" transform="translate(-4.801 -18.455)" fill="#623815"/>
          <path id="Tracé_56" data-name="Tracé 56" d="M217.076,118.814a21.54,21.54,0,0,1-1.569,8.078,21.309,21.309,0,0,1-4.7,7.1l-30.024,30.024-22.05,21.079-7.073,6.761-.017.017-11.909,11.389-.026.017A86.337,86.337,0,0,1,9.257,96.521a4.871,4.871,0,0,1,.295-.555l8.035-12.75L30.4,62.883l.017-.026.026-.043,8.13-14.085a20.829,20.829,0,0,1,7.853-7.766A21.117,21.117,0,0,1,56.78,38.25a20.808,20.808,0,0,1,10.444,2.8,19.57,19.57,0,0,1,2.167,1.439A20.64,20.64,0,0,1,74.982,48.9q.247.429.468.884a20.959,20.959,0,0,1,2.219,8.459c.026.338.035.676.035,1.014,0,.52-.017,1.04-.061,1.56A20.884,20.884,0,0,1,74.9,69.7l-9.04,15.662a3.78,3.78,0,0,0-.208.355l-3.441,5.963,2.054,2.592,6.362,8.035v11.614a4.334,4.334,0,1,1-8.667,0v-8.6l-1.17-1.473-3.84-4.845-.624-.8-2.739-3.458a4.327,4.327,0,0,1-.286-4.966l4.888-8.477c.061-.113.13-.225.191-.329L67.4,65.37A12.178,12.178,0,0,0,69.019,59.7a3.769,3.769,0,0,0,.017-.442,12.561,12.561,0,0,0-1.6-6.111,11.317,11.317,0,0,0-1.161-1.7,12.184,12.184,0,0,0-9.491-4.533,12.467,12.467,0,0,0-6.111,1.6,12.092,12.092,0,0,0-4.594,4.542L40.919,61.99,40.91,62l-2.982,5.166a2.861,2.861,0,0,1-.156.277L24.694,88.192l-1.777,2.817-5.885,9.343A77.66,77.66,0,0,0,132.3,198.008l.009-.009,13.963-13.209,6.969-6.6,20.646-19.536,30.8-30.8a12.674,12.674,0,0,0,2.791-4.212,12.962,12.962,0,0,0,0-9.673,12.732,12.732,0,0,0-7.012-7.012,12.94,12.94,0,0,0-9.664,0,12.647,12.647,0,0,0-4.221,2.8l-14.622,14.622c-.009-.069-.017-.13-.026-.2L152.98,143.135l-6.015-6.024,33.482-33.482a21.309,21.309,0,0,1,7.1-4.7,21.54,21.54,0,0,1,8.078-1.569,22.082,22.082,0,0,1,2.93.2,21.473,21.473,0,0,1,12.256,6.067l1.265,1.274v.121a21.009,21.009,0,0,1,3.432,5.712,21.507,21.507,0,0,1,1.569,8.078" transform="translate(0 -5.097)" fill="#623815"/>
        </g>
      </g>
    </g>
  </g>
</svg>
