<svg xmlns="http://www.w3.org/2000/svg" xmlns:xlink="http://www.w3.org/1999/xlink" width="412" height="258" viewBox="0 0 412 258">
  <defs>
    <clipPath id="clip-path">
      <rect id="Rectangle_125" data-name="Rectangle 125" width="412" height="258" transform="translate(7896 5646)" fill="#fff" stroke="#707070" stroke-width="1"/>
    </clipPath>
  </defs>
  <g id="Groupe_de_masques_8" data-name="Groupe de masques 8" transform="translate(-7896 -5646)" clip-path="url(#clip-path)">
    <path id="Union_17" data-name="Union 17" d="M-7820.528-4142.027V-4442.26a60.128,60.128,0,0,1-7.158-22.049c-3.331-29.81,22.717-59.229,52.859-59.7,22.448-.352,42.744,12.747,64.337,19.1,43.117,12.7,88.727-1.94,131.091-16.033s88.552-27.792,131.138-13.386a100.923,100.923,0,0,1,18.119,8.213,109.79,109.79,0,0,1,46.505,54.084h19.109v330Zm103.683-375.939c-9.384-4.684-35.315-24.871-22.434-36.944,4.5-4.215,13.042-4.43,18.8-5.187,9.129-1.2,18.093-2.274,26.8-5.357,12.122-4.288,24.681-11.687,38.074-8.37a25.493,25.493,0,0,1,6.6,2.667,25.164,25.164,0,0,1,3.575,2.5c11.431,9.556,11.765,28.2,3.113,40.148s-24.032,17.708-38.929,18.254q-1.326.048-2.655.049A74.191,74.191,0,0,1-7716.845-4517.966Zm93.385-2.046c-3.921-3.813-.381-12.539.359-17.1.6-3.688.934-7.851,4.178-10.241,4.772-3.516,9.984-2.991,14.41-.436a22.832,22.832,0,0,1,10.046,12.849c.914,3.225.981,7.213-1.627,9.288a10.242,10.242,0,0,1-3.363,1.541l-14.41,4.583a18.393,18.393,0,0,1-5.366,1.031A5.829,5.829,0,0,1-7623.46-4520.012Z" transform="translate(15699.527 10235.027)" fill="#f2bd72" stroke="rgba(0,0,0,0)" stroke-miterlimit="10" stroke-width="1"/>
  </g>
</svg>
