<svg xmlns="http://www.w3.org/2000/svg" xmlns:xlink="http://www.w3.org/1999/xlink" width="218.567" height="255.894" viewBox="0 0 218.567 255.894">
  <defs>
    <linearGradient id="linear-gradient" x1="-0.389" y1="1" x2="0.949" y2="0.187" gradientUnits="objectBoundingBox">
      <stop offset="0" stop-color="#ecc8e1"/>
      <stop offset="1" stop-color="#b87ebe"/>
    </linearGradient>
    <clipPath id="clip-path">
      <rect id="Rectangle_38" data-name="Rectangle 38" width="218.567" height="198.69" fill="url(#linear-gradient)"/>
    </clipPath>
    <clipPath id="clip-path-2">
      <rect id="Rectangle_33" data-name="Rectangle 33" width="186.04" height="255.894" fill="#623815"/>
    </clipPath>
  </defs>
  <g id="Groupe_45" data-name="Groupe 45" transform="translate(-1422.474 -1492)">
    <g id="Groupe_42" data-name="Groupe 42" transform="translate(1422.474 1512)">
      <g id="Groupe_41" data-name="Groupe 41" clip-path="url(#clip-path)">
        <path id="Tracé_61" data-name="Tracé 61" d="M2.941,109.988c-2.949,17.207-5.693,35.868,2.4,51.336C13.729,177.35,31.689,185.8,49.03,190.945c39.309,11.66,83.815,11.365,119.242-9.278S226.788,117.2,215.817,77.7c-9.561-34.429-41.978-58.682-76.335-68.5C111.527,1.211,61.714-7.343,35.369,10.61,6.895,30.011,8.092,79.933,2.941,109.988" transform="translate(0 0)" fill="url(#linear-gradient)"/>
      </g>
    </g>
    <g id="Groupe_38" data-name="Groupe 38" transform="translate(1455 1492)">
      <g id="Groupe_37" data-name="Groupe 37" clip-path="url(#clip-path-2)">
        <path id="Tracé_57" data-name="Tracé 57" d="M115.1,73.218a4.3,4.3,0,0,1,3.042,7.343L83.006,115.693a4.3,4.3,0,0,1-6.083,0L60.5,99.269a4.3,4.3,0,0,1,.011-6.094l.02-.019a4.3,4.3,0,0,1,6.072.01l10.323,10.323a4.3,4.3,0,0,0,6.081,0l29.05-29.015a4.288,4.288,0,0,1,3.04-1.258m0-7.512a11.736,11.736,0,0,0-8.348,3.455L79.968,95.909l-8.054-8.054a11.814,11.814,0,0,0-16.677-.03l-.017.017a11.814,11.814,0,0,0-.032,16.739L71.611,121a11.814,11.814,0,0,0,16.707,0l35.131-35.132A11.813,11.813,0,0,0,115.1,65.706" fill="#623815"/>
        <path id="Tracé_58" data-name="Tracé 58" d="M146.639,70.134a59.031,59.031,0,1,0,4.637,22.946,59.206,59.206,0,0,0-4.637-22.946M139.723,113.1a51.524,51.524,0,1,1,4.041-20.021,51.6,51.6,0,0,1-4.041,20.021" fill="#623815"/>
        <path id="Tracé_59" data-name="Tracé 59" d="M184.247,83.811a24.437,24.437,0,0,0-5.379-8.1l-7.942-7.942a16.956,16.956,0,0,1-4.968-11.989V44.549A24.468,24.468,0,0,0,141.49,20.076H130.258a16.966,16.966,0,0,1-11.994-4.967l-7.942-7.943a24.462,24.462,0,0,0-34.609,0L67.77,15.109a16.955,16.955,0,0,1-11.993,4.967H44.549A24.465,24.465,0,0,0,20.076,44.549V55.782a16.956,16.956,0,0,1-4.968,11.989L7.166,75.713a24.46,24.46,0,0,0,0,34.609l7.942,7.942a16.967,16.967,0,0,1,4.968,11.994v11.233a24.478,24.478,0,0,0,24.473,24.473h5.484l-27.613,66.5a3.756,3.756,0,0,0,4.371,5.088l25.981-6.41,13.8,22.926a3.752,3.752,0,0,0,6.686-.5l18.994-45.751,18.9,45.736a3.756,3.756,0,0,0,6.685.506l13.837-22.9,25.97,6.455a3.758,3.758,0,0,0,4.377-5.082l-27.508-66.574h6.981a24.465,24.465,0,0,0,24.468-24.473V130.258a16.967,16.967,0,0,1,4.968-11.994l7.942-7.942a24.485,24.485,0,0,0,5.379-26.511M69.167,243.83,57.78,224.9a3.768,3.768,0,0,0-4.122-1.713L32.21,228.481l25.9-62.357a16.922,16.922,0,0,1,9.665,4.808l7.943,7.937A24.4,24.4,0,0,0,93.02,186.04h.145Zm83.065-15.294L130.793,223.2a3.761,3.761,0,0,0-4.121,1.7l-11.423,18.909-18.924-45.8L102,184.332c.075-.025.145-.055.22-.085a24.383,24.383,0,0,0,8.1-5.378l7.942-7.937a16.927,16.927,0,0,1,8.283-4.558ZM177.286,99.4a17,17,0,0,1-3.726,5.609l-7.942,7.937a24.476,24.476,0,0,0-7.171,17.307v11.233a16.95,16.95,0,0,1-16.957,16.961H130.258a24.471,24.471,0,0,0-17.307,7.166l-7.943,7.943a16.9,16.9,0,0,1-11.988,4.967,16.9,16.9,0,0,1-11.994-4.967l-7.942-7.943a24.473,24.473,0,0,0-17.307-7.166H44.549a16.957,16.957,0,0,1-16.961-16.961V130.258a24.489,24.489,0,0,0-7.167-17.307l-7.942-7.937a16.946,16.946,0,0,1,0-23.988l7.942-7.942a24.468,24.468,0,0,0,7.167-17.3V44.549A16.957,16.957,0,0,1,44.549,27.588H55.777a24.494,24.494,0,0,0,17.307-7.166l7.942-7.943a16.942,16.942,0,0,1,23.982,0l7.943,7.943a24.492,24.492,0,0,0,17.307,7.166H141.49a16.959,16.959,0,0,1,16.957,16.961V55.782a24.455,24.455,0,0,0,7.171,17.3l7.942,7.942A16.985,16.985,0,0,1,177.286,99.4" fill="#623815"/>
      </g>
    </g>
  </g>
</svg>
