<svg xmlns="http://www.w3.org/2000/svg" width="60.785" height="69.966" viewBox="0 0 60.785 69.966"><path d="M34.293.058C38.112,0,41.9.029,45.691,0a18.158,18.158,0,0,0,5.1,12.156c3.265,3.236,7.871,4.723,12.361,5.218V29.123A31.2,31.2,0,0,1,50.91,26.3a36.018,36.018,0,0,1-4.723-2.711c-.029,8.512.029,17.025-.058,25.508a22.267,22.267,0,0,1-3.936,11.486,21.719,21.719,0,0,1-17.229,9.358,21.257,21.257,0,0,1-11.894-3A21.984,21.984,0,0,1,2.43,50.288c-.058-1.458-.087-2.915-.029-4.344A21.947,21.947,0,0,1,27.85,26.47c.058,4.315-.117,8.629-.117,12.944a10,10,0,0,0-12.769,6.18,11.565,11.565,0,0,0-.408,4.694c.7,4.781,5.306,8.8,10.2,8.367a9.794,9.794,0,0,0,8.075-4.694,6.726,6.726,0,0,0,1.2-3.09c.292-5.218.175-10.407.2-15.626.029-11.748-.029-23.468.058-35.187Z" transform="translate(-2.369)" fill="#623815"/></svg>