<svg xmlns="http://www.w3.org/2000/svg" width="69.982" height="69.966" viewBox="0 0 69.982 69.966"><path d="M34.993,19.282A17.938,17.938,0,1,0,52.932,37.221,17.91,17.91,0,0,0,34.993,19.282Zm0,29.6A11.662,11.662,0,1,1,46.656,37.221,11.684,11.684,0,0,1,34.993,48.883ZM57.85,18.549a4.184,4.184,0,1,1-4.184-4.184A4.174,4.174,0,0,1,57.85,18.549ZM69.731,22.8c-.265-5.6-1.546-10.569-5.652-14.66-4.09-4.09-9.055-5.371-14.66-5.652-5.777-.328-23.09-.328-28.867,0C14.963,2.749,10,4.029,5.892,8.12S.522,17.175.241,22.779c-.328,5.777-.328,23.09,0,28.867.265,5.6,1.546,10.569,5.652,14.66s9.055,5.371,14.66,5.652c5.777.328,23.09.328,28.867,0,5.6-.265,10.569-1.546,14.66-5.652,4.09-4.09,5.371-9.055,5.652-14.66.328-5.777.328-23.075,0-28.851ZM62.268,57.845A11.807,11.807,0,0,1,55.617,64.5C51.012,66.322,40.083,65.9,34.993,65.9S18.96,66.306,14.37,64.5a11.807,11.807,0,0,1-6.651-6.651C5.892,53.239,6.314,42.31,6.314,37.221S5.908,21.187,7.719,16.6A11.807,11.807,0,0,1,14.37,9.946C18.975,8.12,29.9,8.541,34.993,8.541s16.034-.406,20.624,1.405A11.807,11.807,0,0,1,62.268,16.6c1.827,4.606,1.405,15.534,1.405,20.624S64.095,53.255,62.268,57.845Z" transform="translate(0.005 -2.238)" fill="#623815"/></svg>