<svg xmlns="http://www.w3.org/2000/svg" width="63.447" height="42.828" viewBox="0 0 63.447 42.828"><path d="M.072,43.1V7.861Q.072,7.8.256,6.7L21,24.442.317,44.326A5.185,5.185,0,0,1,.072,43.1ZM2.825,4.252a2.637,2.637,0,0,1,1.04-.184h55.86a3.464,3.464,0,0,1,1.1.184l-20.8,17.8-2.753,2.2-5.445,4.466-5.445-4.466-2.753-2.2Zm.061,42.461L23.75,26.706l8.076,6.547L39.9,26.706,60.765,46.712a2.938,2.938,0,0,1-1.04.184H3.865a2.771,2.771,0,0,1-.979-.184ZM42.655,24.442,63.335,6.7a3.652,3.652,0,0,1,.184,1.162V43.1a4.689,4.689,0,0,1-.184,1.224Z" transform="translate(-0.072 -4.068)" fill="#623815"/></svg>