<svg xmlns="http://www.w3.org/2000/svg" xmlns:xlink="http://www.w3.org/1999/xlink" width="1054" height="886" viewBox="0 0 1054 886">
  <defs>
    <clipPath id="clip-path">
      <rect id="Rectangle_90" data-name="Rectangle 90" width="1054" height="886" transform="translate(14207 1235)" fill="#fff" stroke="#707070" stroke-width="1"/>
    </clipPath>
  </defs>
  <g id="Groupe_de_masques_9" data-name="Groupe de masques 9" transform="translate(-14207 -1235)" clip-path="url(#clip-path)">
    <path id="Union_9" data-name="Union 9" d="M-12271.469,1346.531v0c-.276,0-.556,0-.835,0a153.018,153.018,0,0,1-30.416-3.035c-67.733-13.724-118.672-68.147-164.216-120.133s-94.986-107.221-162.113-123.666c-33.621-8.24-70.69-6.374-100.288-24.325-18.015-10.924-30.339-29.212-35.888-49.446h0c-.006-.029-.013-.055-.019-.08a93.446,93.446,0,0,1-3.308-23.734,114.406,114.406,0,0,1,11.84-56.346c12.369-24.4,33.29-44.292,42.069-70.2,19.356-57.117-26.46-118.669-15.6-177.989,8.474-46.273,46.758-74.711,72.254-111.174,13.879-19.848,21.823-61.138,35.092-93.769,10.5-27.247,25.51-53.366,28.057-82.392,3.525-40.165-17.463-79.236-15.35-119.5,1.923-36.713,24.661-71.628,57.457-88.246a104.706,104.706,0,0,1,47.2-11.024h.028q1.323,0,2.645.032h926.3v1155.03Zm-273.161-43.03c-4.92-11.4.539-23.047,4.579-33.83,5-13.349,8.949-42.137,25.1-46.279,9.993-2.559,19.145,5.857,26.046,13.525q15.514,17.244,31.026,34.491c2.55,2.835,5.154,5.754,6.531,9.309,3.722,9.576-2.533,20.131-9.852,27.343-11.265,11.1-29.267,18.84-46.077,18.843C-12522.849,1326.908-12537.4,1320.264-12544.63,1303.5Zm-63.854-28.669c-30.895-1.689-52.968-26.1-76.146-43.473-16.653-12.485-35.162-20.776-53.951-29.443-11.861-5.472-30.034-11.608-36.915-23.76-19.707-34.783,49.124-61.417,72.313-65.354a164.125,164.125,0,0,1,81.4,6.907c31.579,11.082,60.778,33.807,71.494,65.514s-2.223,71.988-32.992,85.154a56.5,56.5,0,0,1-22.17,4.537Q-12606.971,1274.916-12608.484,1274.832Z" transform="translate(27008.066 868)" fill="#f2bd72" stroke="rgba(0,0,0,0)" stroke-miterlimit="10" stroke-width="1"/>
  </g>
</svg>
