<svg xmlns="http://www.w3.org/2000/svg" xmlns:xlink="http://www.w3.org/1999/xlink" width="145.853" height="85.431" viewBox="0 0 145.853 85.431">
  <defs>
    <clipPath id="clip-path">
      <rect id="Rectangle_8" data-name="Rectangle 8" width="145.853" height="85.431" fill="none"/>
    </clipPath>
  </defs>
  <g id="Groupe_6" data-name="Groupe 6" clip-path="url(#clip-path)">
    <path id="Tracé_2" data-name="Tracé 2" d="M86.081,14.111c0-.878.351-1.813,2.28-2.251A80.369,80.369,0,0,1,103.272,10.6c3.1,0,5.5,2.306,5.5,4.338,0,1.044-1.111,1.538-4.5,2.087-.76.11-1.7.22-2.631.33.351,8.457-.292,25.041-.585,27.732-.117,1.593-.526,2.416-2.4,2.416-2.4,0-4.386-.439-4.619-1.922-.351-2.416-.643-17.408-.41-27.623-1.637.11-3.216.165-4.619.165-1.754,0-2.924-3.185-2.924-4.009" transform="translate(-53.958 -6.642)" fill="#fd5994"/>
    <path id="Tracé_3" data-name="Tracé 3" d="M153.75,0c1.754,0,4.152.879,4.327,2.2.35,5.711.292,13.619.117,19.935,2.164-6.206,5.262-9.555,9.18-9.555,2.807,0,4.211,1.7,4.211,4.723,0,3.24-.994,7.194-.994,12.191,0,3.185.819,4.338,2.105,4.338,2.631,0,5.38-9.28,7.426-16.529a.775.775,0,0,1,.7-.6,2.605,2.605,0,0,1,2.047,2.252c0,5.821-4.795,22.131-12.514,22.131-4.678,0-6.725-3.3-6.725-9.665,0-3.13.468-6.535.7-9.775.058-.6-.175-.989-.585-.989-2.1,0-4.911,11.258-6.139,18.177v.055c0,.11,0,.165-.059.219v.11a2.13,2.13,0,0,1-2.164,1.758c-2.105,0-4.151-.549-4.386-2.417-.351-2.91-.818-28.007.819-37.123C152,.33,152.639,0,153.75,0" transform="translate(-94.437 0)" fill="#fd5994"/>
    <path id="Tracé_4" data-name="Tracé 4" d="M237.872,52c.585-.494.936-.878,1.579-.878.76,0,1.17.659,1.17,1.867,0,4.393-2.807,9.116-8.888,9.116-8.128,0-11.051-5.327-11.051-11.642,0-10.159,4.736-16.914,11.519-16.914,4.678,0,7.777,2.746,7.777,6.919,0,4.723-4.21,9.391-12.338,9.61.351,4.009,2.573,5.931,5.2,5.931,2.456,0,3.918-2.361,5.029-4.009m-10.233-5c5.146-1.977,6.608-4.613,6.608-6.48,0-1.318-.643-2.032-1.871-2.032-2.4,0-4.386,2.965-4.736,8.512" transform="translate(-138.329 -21.031)" fill="#fd5994"/>
    <path id="Tracé_5" data-name="Tracé 5" d="M0,127.984c0-2.691,10.057-3.241,13.391-3.241,8.712,0,12.981,3.625,12.981,12.906,0,6.754-3.274,10.6-6.783,12.246,1.93,2.8,4.736,6.26,6.2,7.962a2.136,2.136,0,0,1,.585,1.373c0,1.7-2.924,3.021-5.555,3.021-1.93,0-4.386-3.186-8.362-11.588a13.519,13.519,0,0,1-1.871-.384c-.117,4.5-.292,8.182-.409,9.335-.175,1.593-.526,2.526-2.456,2.417-2.4-.055-4.386-.44-4.62-1.922-.351-2.416-.643-17.3-.409-27.513H2.631C1.287,132.6,0,128.917,0,127.984m18.77,10.489c0-5.327-1.7-7.249-5.087-7.249a19.614,19.614,0,0,0-3.041.275c.175,3.624.175,8.9.059,13.894a10.394,10.394,0,0,0,2.748.329c2.982,0,5.321-2.306,5.321-7.249" transform="translate(0 -78.192)" fill="#fd5994"/>
    <path id="Tracé_6" data-name="Tracé 6" d="M205.78,153.6c.116-.44.35-.6.643-.6a2.478,2.478,0,0,1,2.046,2.251c0,5.822-4.736,22.131-12.454,22.131-4.795,0-6.783-3.625-6.725-10.215.058-2.965.467-6.26.7-9.226,0-.6-.175-.988-.643-.988-2.164,0-5.029,11.807-6.2,18.781-.117.769-.76,1.263-2.222,1.263-1.754,0-4.326-.768-4.443-2.691-.059-2.636.409-19.22,1.053-21.966.233-.988.7-1.537,1.579-1.592,1.579-.055,3.859.659,3.859,2.416,0,3.4-.117,6.425-.234,8.842,2.223-8.457,5.672-13.125,10.233-13.125,2.865,0,4.268,1.7,4.268,4.723,0,3.24-.993,7.194-.993,12.191,0,3.185.818,4.338,2.1,4.338,2.631,0,5.321-9.28,7.427-16.529" transform="translate(-110.622 -93.321)" fill="#fd5994"/>
    <path id="Tracé_7" data-name="Tracé 7" d="M265.214,153.089c-.292,0-.526.165-.7.6-2.047,7.249-4.678,16.529-7.251,16.529-1.345,0-2.164-1.263-2.164-4.613,0-5.272.7-8.676.7-13.564,0-2.032-2.632-3.02-4.853-3.02-1.052.055-1.7.385-1.988,1.922a113.813,113.813,0,0,0-.7,14.168c0,7.743,1.4,12.356,6.666,12.356,7.426,0,12.045-14.278,12.338-22.077a2.542,2.542,0,0,0-2.046-2.306" transform="translate(-155.614 -93.413)" fill="#fd5994"/>
    <path id="Tracé_8" data-name="Tracé 8" d="M308.789,153.453c.175-.384.409-.549.7-.549a2.534,2.534,0,0,1,2.046,2.2c0,5.821-5.614,22.186-17.6,22.186-8.128,0-11.051-5.327-11.051-11.642,0-10.159,4.736-16.914,11.519-16.914,4.678,0,7.777,2.746,7.777,6.919,0,4.723-4.21,9.391-12.338,9.61.351,4.009,2.573,5.931,5.2,5.931,6.9,0,11.052-9.445,13.741-17.738m-18.946,8.732c5.146-1.977,6.608-4.613,6.608-6.48,0-1.318-.643-2.032-1.871-2.032-2.4,0-4.386,2.965-4.736,8.512" transform="translate(-177.32 -93.228)" fill="#fd5994"/>
    <path id="Tracé_9" data-name="Tracé 9" d="M351.766,177.415c-5.789,0-9.707-4.613-10.759-8.018-.877-2.526,1.462-5.437,2.514-4.174,1.4,1.867,4.268,5.6,7.192,5.6.994,0,1.813-.769,1.813-2.471,0-4.228-3.1-8.512-5.263-11.532h-.117a2.356,2.356,0,0,1-2.28-1.812c.059-.6.234-1.647.351-2.471.468-2.2,2.865-3.954,3.976-3.954a2.986,2.986,0,0,1,1.93.988c3.8,3.954,8.362,13.894,8.362,20.374,0,3.57-2.28,7.469-7.718,7.469" transform="translate(-213.631 -93.136)" fill="#fd5994"/>
    <path id="Tracé_10" data-name="Tracé 10" d="M247.917,134.562a4.391,4.391,0,0,0-1.4-3.1A5.562,5.562,0,0,0,244.3,130.3c-.727-.231-1.7-.43-2.1-1.114a1.626,1.626,0,0,1,.471-1.951,2.878,2.878,0,0,1,2.594-.432,5.1,5.1,0,0,1,3.649,3.81,4.737,4.737,0,0,1-1,3.944" transform="translate(-151.716 -79.411)" fill="#d53872"/>
    <path id="Tracé_11" data-name="Tracé 11" d="M265.907,134.132c-.533,1.29-2.065,1.883-3.307,2.41a10.6,10.6,0,0,0-2.46,1.346,9.878,9.878,0,0,1,1.022-2.969c.6-1.133,1.615-2.7,3.066-2.937a1.509,1.509,0,0,1,1.68,2.15" transform="translate(-163.063 -82.713)" fill="#d53872"/>
    <path id="Tracé_12" data-name="Tracé 12" d="M136.556,149.772a6.673,6.673,0,0,1,3.543,1.052,9.519,9.519,0,0,1,2.3,2.045,14.45,14.45,0,0,1,2.511,4.695,19.5,19.5,0,0,1,.941,6.069,17.7,17.7,0,0,1-2.783,9.872,10.123,10.123,0,0,1-2.966,2.936,6.673,6.673,0,0,1-3.543,1.052.429.429,0,1,0,0,.856,7.63,7.63,0,0,0,4.045-1.194,10.4,10.4,0,0,0,2.515-2.235,15.28,15.28,0,0,0,2.661-4.967,20.306,20.306,0,0,0,.981-6.32,18.5,18.5,0,0,0-2.927-10.334,10.989,10.989,0,0,0-3.231-3.188,7.63,7.63,0,0,0-4.045-1.194.429.429,0,1,0,0,.856Z" transform="translate(-85.311 -93.345)" fill="#fd5994"/>
    <path id="Tracé_13" data-name="Tracé 13" d="M142.735,155.592c.2.61-.362,1.021-.895,1.461-.575.475-1.411-.138-1.608-.748s1.122-1.053,1.746-1.387.56.065.757.675" transform="translate(-87.889 -97.031)" fill="#623815"/>
    <path id="Tracé_14" data-name="Tracé 14" d="M153.343,171.754c.626-.2,1.1.39,1.612.953.548.609-.029,1.48-.655,1.68s-1.2-1.187-1.605-1.846.022-.587.648-.787" transform="translate(-95.614 -107.635)" fill="#623815"/>
    <path id="Tracé_15" data-name="Tracé 15" d="M152.483,193.584c0,.617-.642.85-1.269,1.117-.677.288-1.269-.5-1.269-1.117s1.358-.68,2.038-.825.5.208.5.825" transform="translate(-93.989 -120.806)" fill="#623815"/>
    <path id="Tracé_16" data-name="Tracé 16" d="M120.932,152.064a7.613,7.613,0,0,1,3.585.9,10.124,10.124,0,0,1,4.151,4.388,15.848,15.848,0,0,1,1.648,7.288,21.524,21.524,0,0,1-.625,5.265,12.946,12.946,0,0,1-2.994,5.822,7.319,7.319,0,0,1-2.229,1.609,6.268,6.268,0,0,1-2.625.565.429.429,0,1,0,0,.856,7.264,7.264,0,0,0,3.92-1.136,9.084,9.084,0,0,0,2.315-2.138,14.206,14.206,0,0,0,2.329-4.758,21.89,21.89,0,0,0,.819-6.084,15.6,15.6,0,0,0-2.988-9.622,10.26,10.26,0,0,0-3.274-2.8,8.575,8.575,0,0,0-4.032-1.012.429.429,0,1,0,0,.856Z" transform="translate(-75.518 -94.781)" fill="#623815"/>
    <path id="Tracé_17" data-name="Tracé 17" d="M79.431,164.592h.456a17.791,17.791,0,0,1,2.783-9.9,10.133,10.133,0,0,1,2.966-2.945,6.476,6.476,0,0,1,7.085,0,9.534,9.534,0,0,1,2.3,2.051A14.518,14.518,0,0,1,97.53,158.5a19.609,19.609,0,0,1,.941,6.087,17.792,17.792,0,0,1-2.784,9.9,10.131,10.131,0,0,1-2.966,2.945,6.476,6.476,0,0,1-7.085,0,9.542,9.542,0,0,1-2.3-2.051,14.518,14.518,0,0,1-2.511-4.709,19.608,19.608,0,0,1-.941-6.087h-.911A18.6,18.6,0,0,0,81.9,174.955a11.011,11.011,0,0,0,3.231,3.2,7.435,7.435,0,0,0,8.092,0,10.418,10.418,0,0,0,2.515-2.241A15.347,15.347,0,0,0,98.4,170.93a20.418,20.418,0,0,0,.981-6.339,18.6,18.6,0,0,0-2.926-10.364,11.015,11.015,0,0,0-3.231-3.2,7.435,7.435,0,0,0-8.092,0,10.419,10.419,0,0,0-2.515,2.241,15.34,15.34,0,0,0-2.661,4.981,20.427,20.427,0,0,0-.981,6.339Z" transform="translate(-49.504 -93.919)" fill="#fd5994"/>
    <path id="Tracé_18" data-name="Tracé 18" d="M117.134,188.979c0,.617-.642.85-1.269,1.117-.677.288-1.269-.5-1.269-1.117s1.358-.68,2.038-.825.5.208.5.825" transform="translate(-71.832 -117.92)" fill="#623815"/>
    <path id="Tracé_19" data-name="Tracé 19" d="M123.97,173.617c0,.618-.642.851-1.269,1.118-.677.288-1.269-.5-1.269-1.118s1.358-.68,2.038-.825.5.207.5.825" transform="translate(-76.117 -108.291)" fill="#623815"/>
    <path id="Tracé_20" data-name="Tracé 20" d="M102.5,158.194c-.576.3-1.1-.119-1.654-.506-.595-.418-.144-1.286.432-1.583s1.289.79,1.751,1.28.047.512-.529.809" transform="translate(-63.037 -97.819)" fill="#623815"/>
    <path id="Tracé_21" data-name="Tracé 21" d="M88.078,192.642c-.474.445-1.009.279-1.561.146-.6-.144-.318-1.021.156-1.466s1.274.215,1.762.464.117.41-.357.855" transform="translate(-54.019 -119.831)" fill="#623815"/>
    <path id="Tracé_22" data-name="Tracé 22" d="M102.554,176.5c.2.61-.362,1.021-.895,1.461-.575.475-1.411-.138-1.608-.748s1.122-1.053,1.746-1.387.56.065.757.675" transform="translate(-62.703 -110.134)" fill="#623815"/>
    <path id="Tracé_23" data-name="Tracé 23" d="M147.826,212.308c.338.53-.086,1.039-.477,1.571-.423.574-1.362.183-1.7-.346s.792-1.239,1.3-1.691.543-.063.881.466" transform="translate(-91.258 -132.664)" fill="#623815"/>
    <path id="Tracé_24" data-name="Tracé 24" d="M111.006,205.435c.653.4.521,1.1.433,1.8-.094.76-1.277.749-1.93.347s.081-1.591.329-2.26.515-.288,1.168.113" transform="translate(-68.478 -128.473)" fill="#623815"/>
    <path id="Tracé_25" data-name="Tracé 25" d="M94.751,216.336c-.555.312-1.059-.033-1.587-.35-.569-.342-.131-1.167.424-1.478s1.234.634,1.676,1.051.042.465-.513.777" transform="translate(-58.231 -134.421)" fill="#623815"/>
    <path id="Tracé_26" data-name="Tracé 26" d="M132.186,190.146a17.643,17.643,0,0,0,3.128-15.111c-.13-.537-1.008-.309-.878.228a16.853,16.853,0,0,1-3.036,14.452c-.353.44.438.867.787.432" transform="translate(-82.309 -109.525)" fill="#623815"/>
  </g>
</svg>
