<svg xmlns="http://www.w3.org/2000/svg" xmlns:xlink="http://www.w3.org/1999/xlink" width="275" height="275" viewBox="0 0 275 275">
  <defs>
    <linearGradient id="linear-gradient" x1="0.5" x2="0.5" y2="1" gradientUnits="objectBoundingBox">
      <stop offset="0" stop-color="#f9a1cc"/>
      <stop offset="1" stop-color="#fd5994"/>
    </linearGradient>
    <clipPath id="clip-path">
      <rect id="Rectangle_61" data-name="Rectangle 61" width="275" height="275" transform="translate(883 1473)" fill="none" stroke="#707070" stroke-width="1"/>
    </clipPath>
    <clipPath id="clip-path-2">
      <rect id="Rectangle_31" data-name="Rectangle 31" width="217.779" height="222.958" fill="url(#linear-gradient)"/>
    </clipPath>
    <clipPath id="clip-path-3">
      <rect id="Rectangle_30" data-name="Rectangle 30" width="222.1" height="222.1" fill="#623815"/>
    </clipPath>
  </defs>
  <g id="Groupe_de_masques_3" data-name="Groupe de masques 3" transform="translate(-883 -1473)" clip-path="url(#clip-path)">
    <g id="Groupe_44" data-name="Groupe 44" transform="translate(7.731 -9.625)">
      <g id="Groupe_34" data-name="Groupe 34" transform="translate(1011.044 1811) rotate(-135)">
        <g id="Groupe_33" data-name="Groupe 33" clip-path="url(#clip-path-2)">
          <path id="Tracé_47" data-name="Tracé 47" d="M123.358,2.787c30.913-9.8,66.577,7.238,82.793,35.32s14.581,64.247.607,93.509-38.953,52.15-66.751,68.849c-28.087,16.873-64.763,29.9-97.141,17.719-27-10.157-51.5-39.94-39.922-69.276C14.726,119.053,44.827,94,61.413,66.046c15.032-25.334,32.131-53.812,61.945-63.26" transform="translate(0 0)" fill="url(#linear-gradient)"/>
        </g>
      </g>
      <g id="Groupe_31" data-name="Groupe 31" transform="translate(228.825 1520)">
        <g id="Groupe_30" data-name="Groupe 30" transform="translate(673 -8)" clip-path="url(#clip-path-3)">
          <path id="Tracé_45" data-name="Tracé 45" d="M218.27,32.59A52.225,52.225,0,0,0,132.9,15.3a94.651,94.651,0,0,0-11.74,14.98,165.744,165.744,0,0,0-15.64,30.86c-.51,1.33-.99,2.67-1.45,4l7.94,7.94c.13-.42.26-.85.39-1.28a151.255,151.255,0,0,1,11.79-27.16,137.586,137.586,0,0,1,8.05-12.88,75.015,75.015,0,0,1,7.73-9.39A42.068,42.068,0,0,1,169.84,10a42.7,42.7,0,0,1,9.74,1.13,59.7,59.7,0,0,0-9.86,3.98,84.645,84.645,0,0,0-21.3,15.71A181.087,181.087,0,0,0,134.3,47.15c-4.95,6.38-10,13.47-14.56,20.61l-.01.02-4.87,8.15,7.26,7.25c1.89-3.35,3.99-6.82,6.21-10.3,2.96-4.61,6.14-9.23,9.36-13.61a193.51,193.51,0,0,1,17.8-21.37,74.867,74.867,0,0,1,18.75-13.87c6.2-3.16,12.09-4.7,16.65-4.69a16.639,16.639,0,0,1,4.27.52L126.98,88.04l7.07,7.07,68.19-68.19a16.824,16.824,0,0,1,.51,4.29c.02,4.55-1.53,10.44-4.68,16.64A74.907,74.907,0,0,1,184.2,66.61a169.63,169.63,0,0,1-15.4,13.26A262.87,262.87,0,0,1,143.33,97.3l-.14.08-.07.04q-2.175,1.29-4.29,2.47l7.29,7.29,2.05-1.13c6.92-4.1,13.97-8.81,20.55-13.61,4.47-3.26,8.71-6.56,12.53-9.74s7.22-6.22,10.02-9.02a84.983,84.983,0,0,0,15.72-21.31,59.607,59.607,0,0,0,3.98-9.85A42.374,42.374,0,0,1,209,68.15a41.971,41.971,0,0,1-9.28,13.98,83.958,83.958,0,0,1-13.35,10.4,156.5,156.5,0,0,1-27.63,14.1l-.09.03c-.41.17-.83.32-1.24.48-2.83,1.06-5.67,2.03-8.47,2.86l7.86,7.86,5.08-1.73.08-.03a167.283,167.283,0,0,0,20.33-9.49,147.935,147.935,0,0,0,13.84-8.62,83.708,83.708,0,0,0,10.66-8.79,52.285,52.285,0,0,0,11.48-56.61M100.23,139.16c-.18.19-.36.38-.55.57l-2.12,2.12a22.513,22.513,0,0,0-1.17-3.91,22.079,22.079,0,0,0-4.87-7.36q-.78-.78-1.62-1.47a21.993,21.993,0,0,0-9.65-4.58l2.12-2.12a7.126,7.126,0,0,1,.58-.53l-7.09-7.09c-.19.18-.38.36-.57.55L60.06,130.58,21.72,168.91c-.05.05-.1.1-.15.16L6.49,184.15a22.29,22.29,0,0,0,0,31.46l1.46,1.46H8.1a22.045,22.045,0,0,0,5.75,3.41,22.432,22.432,0,0,0,16.74,0,22.079,22.079,0,0,0,7.36-4.87l15.23-15.24,38.34-38.33c.05-.05.1-.1.15-.16l15.08-15.08c.19-.19.37-.38.55-.57ZM30.88,208.53a12.086,12.086,0,0,1-4.04,2.68,12.462,12.462,0,0,1-9.25,0,12.147,12.147,0,0,1-4.03-2.68,12.016,12.016,0,0,1-2.67-4.03,12.462,12.462,0,0,1,0-9.25,12.016,12.016,0,0,1,2.67-4.03l2.12-2.12a22.514,22.514,0,0,0,1.17,3.91,22.095,22.095,0,0,0,12.24,12.23A20.9,20.9,0,0,0,33,206.41Zm56.24-57.6a12.168,12.168,0,0,1-2.67,4.03L46.11,193.3a12.016,12.016,0,0,1-4.03,2.67,12.334,12.334,0,0,1-9.25,0,12.209,12.209,0,0,1-6.71-6.7,12.462,12.462,0,0,1,0-9.25,12.085,12.085,0,0,1,2.68-4.04l38.33-38.33a11.965,11.965,0,0,1,4.03-2.67,12.334,12.334,0,0,1,9.25,0,11.907,11.907,0,0,1,4.04,2.67,12.169,12.169,0,0,1,2.67,4.03,12.462,12.462,0,0,1,0,9.25" fill="#623815"/>
          <path id="Tracé_46" data-name="Tracé 46" d="M220.76,183.8a17.665,17.665,0,0,0-3.9-5.88L122.12,83.18l-7.26-7.25-54.6-54.6a.976.976,0,0,0-.17-.18c-.11-.11-.23-.21-.35-.31a3.754,3.754,0,0,0-.5-.36c-.09-.06-.19-.11-.29-.17a.2.2,0,0,0-.08-.04,2.875,2.875,0,0,0-.4-.18.467.467,0,0,0-.1-.05L33.41,10.52l-2.32-.89L6.84.38A5,5,0,0,0,.38,6.83L20.05,58.36a.754.754,0,0,0,.06.13,3.548,3.548,0,0,0,.21.44,3.7,3.7,0,0,0,.25.43c.08.11.16.23.25.34a5.042,5.042,0,0,0,.37.42L177.93,216.86a17.809,17.809,0,0,0,25.13,0l13.8-13.81a17.665,17.665,0,0,0,3.9-5.88,17.966,17.966,0,0,0,0-13.37M16.65,21.4l-2.94-7.7,7.7,2.94Zm3.9,10.24L31.64,20.55l15.95,6.09L26.64,47.59Zm82.17,95.86-8.14-8.13-9.66-9.67L31.79,56.58l24.8-24.79L166.51,141.71,141.72,166.5Zm46.07,46.07,24.79-24.79,5.32,5.32-24.8,24.79Zm62.69,19.85a7.464,7.464,0,0,1-1.69,2.56l-13.8,13.8a7.741,7.741,0,0,1-2.56,1.7,7.867,7.867,0,0,1-5.88,0,7.7,7.7,0,0,1-2.55-1.7l-23.83-23.82,24.8-24.79,23.82,23.82a7.464,7.464,0,0,1,1.69,2.56,7.841,7.841,0,0,1,0,5.87" fill="#623815"/>
        </g>
      </g>
    </g>
  </g>
</svg>
